HIERARCHY
ROOT hips
{
  OFFSET 0 10.6860622 2.3727825e-15
  CHANNELS 6 Xposition Yposition Zposition Yrotation Xrotation Zrotation
  JOINT leftUpperLeg
  {
    OFFSET 0.6642549969 -0.9402397400000004 0
    CHANNELS 3 Yrotation Xrotation Zrotation
    JOINT leftLowerLeg
    {
      OFFSET 0 -3.997221335632195 0
      CHANNELS 3 Yrotation Xrotation Zrotation
      JOINT leftFoot
      {
        OFFSET -0.13777839790000004 -4.6145792000000005 -0.22186036399999998
        CHANNELS 3 Yrotation Xrotation Zrotation
        JOINT leftToes
        {
          OFFSET -0.03777410834999995 -0.9130806927000008 0.85230013
          CHANNELS 3 Yrotation Xrotation Zrotation
          End Site
          {
            OFFSET -0.03777410834999995 -0.9130806927000008 0.85230013
          }
        }
      }
    }
  }
  JOINT rightUpperLeg
  {
    OFFSET -0.6642778626 -0.9402397400000004 0
    CHANNELS 3 Yrotation Xrotation Zrotation
    JOINT rightLowerLeg
    {
      OFFSET 0 -3.997221452859387 0
      CHANNELS 3 Yrotation Xrotation Zrotation
      JOINT rightFoot
      {
        OFFSET 0.1377926176 -4.6145792000000005 -0.22185782299999995
        CHANNELS 3 Yrotation Xrotation Zrotation
        JOINT rightToes
        {
          OFFSET 0.037780746850000047 -0.9130806927000008 0.85230167
          CHANNELS 3 Yrotation Xrotation Zrotation
          End Site
          {
            OFFSET 0.037780746850000047 -0.9130806927000008 0.85230167
          }
        }
      }
    }
  }
  JOINT spine
  {
    OFFSET 0 0.13988381660000015 0
    CHANNELS 3 Yrotation Xrotation Zrotation
    JOINT chest
    {
      OFFSET 0 0.6191039003973773 0
      CHANNELS 3 Yrotation Xrotation Zrotation
      JOINT upperChest
      {
        OFFSET 0 0.9855186130586943 0
        CHANNELS 3 Yrotation Xrotation Zrotation
        JOINT leftShoulder
        {
          OFFSET 0.1807663869 1.5087829790000005 0
          CHANNELS 3 Yrotation Xrotation Zrotation
          JOINT leftUpperArm
          {
            OFFSET 0.5985063006419806 0 0
            CHANNELS 3 Yrotation Xrotation Zrotation
            JOINT leftLowerArm
            {
              OFFSET 2.2993332369501065 0 0
              CHANNELS 3 Yrotation Xrotation Zrotation
              JOINT leftHand
              {
                OFFSET 2.395047042602395 0 0
                CHANNELS 3 Yrotation Xrotation Zrotation
                JOINT leftIndexProximal
                {
                  OFFSET 0.5766295810000004 0.04556643899499946 0.17265095988184
                  CHANNELS 3 Yrotation Xrotation Zrotation
                  JOINT leftIndexIntermediate
                  {
                    OFFSET 0.2957229000000008 -0.019352197700001517 -0.007932640616999987
                    CHANNELS 3 Yrotation Xrotation Zrotation
                    JOINT leftIndexDistal
                    {
                      OFFSET 0.19008243099999922 -0.012484908149998475 -0.002786250786000012
                      CHANNELS 3 Yrotation Xrotation Zrotation
                      End Site
                      {
                        OFFSET 0.19008243099999922 -0.012484908149998475 -0.002786250786000012
                      }
                    }
                  }
                }
                JOINT leftMiddleProximal
                {
                  OFFSET 0.5834975091000001 0.0524350405149987 0.02204081888183999
                  CHANNELS 3 Yrotation Xrotation Zrotation
                  JOINT leftMiddleIntermediate
                  {
                    OFFSET 0.33880573540000003 -0.019871473270000717 -0.00000971183179999946
                    CHANNELS 3 Yrotation Xrotation Zrotation
                    JOINT leftMiddleDistal
                    {
                      OFFSET 0.20676022730000088 -0.012221336379999448 0.0001471936708000235
                      CHANNELS 3 Yrotation Xrotation Zrotation
                      End Site
                      {
                        OFFSET 0.20676022730000088 -0.012221336379999448 0.0001471936708000235
                      }
                    }
                  }
                }
                JOINT leftLittleProximal
                {
                  OFFSET 0.5344154683999995 -0.012880921405001189 -0.24414037221816004
                  CHANNELS 3 Yrotation Xrotation Zrotation
                  JOINT leftLittleIntermediate
                  {
                    OFFSET 0.21758961730000093 -0.011650919939999227 0.011893592810000034
                    CHANNELS 3 Yrotation Xrotation Zrotation
                    JOINT leftLittleDistal
                    {
                      OFFSET 0.1475273964999999 -0.008152365682999818 0.006001092492999946
                      CHANNELS 3 Yrotation Xrotation Zrotation
                      End Site
                      {
                        OFFSET 0.1475273964999999 -0.008152365682999818 0.006001092492999946
                      }
                    }
                  }
                }
                JOINT leftRingProximal
                {
                  OFFSET 0.5799399463000003 0.026911854694997794 -0.12150566991816003
                  CHANNELS 3 Yrotation Xrotation Zrotation
                  JOINT leftRingIntermediate
                  {
                    OFFSET 0.26167887460000006 -0.013480186499999602 0.010996293000000053
                    CHANNELS 3 Yrotation Xrotation Zrotation
                    JOINT leftRingDistal
                    {
                      OFFSET 0.17667108799999987 -0.008990287899999228 0.0055541023999999065
                      CHANNELS 3 Yrotation Xrotation Zrotation
                      End Site
                      {
                        OFFSET 0.17667108799999987 -0.008990287899999228 0.0055541023999999065
                      }
                    }
                  }
                }
                JOINT leftThumbProximal
                {
                  OFFSET 0.11018806699999972 -0.09448718900500053 0.17047963138184
                  CHANNELS 3 Yrotation Xrotation Zrotation
                  JOINT leftThumbIntermediate
                  {
                    OFFSET 0.31062601459999983 -0.08126270900000132 0.15443142000000007
                    CHANNELS 3 Yrotation Xrotation Zrotation
                    JOINT leftThumbDistal
                    {
                      OFFSET 0.21627175790000086 -0.08833193599999878 0.018771167799999988
                      CHANNELS 3 Yrotation Xrotation Zrotation
                      End Site
                      {
                        OFFSET 0.21627175790000086 -0.08833193599999878 0.018771167799999988
                      }
                    }
                  }
                }
              }
            }
          }
        }
        JOINT neck
        {
          OFFSET 0 1.5463305265074576 0
          CHANNELS 3 Yrotation Xrotation Zrotation
          JOINT head
          {
            OFFSET 0 0.8456443600000344 0
            CHANNELS 3 Yrotation Xrotation Zrotation
            JOINT leftEye
            {
              OFFSET 0.30408573140000006 0.5104519199999995 0.1276382305
              CHANNELS 3 Yrotation Xrotation Zrotation
              End Site
              {
                OFFSET 0.30408573140000006 0.5104519199999995 0.1276382305
              }
            }
            JOINT rightEye
            {
              OFFSET -0.30409491089999996 0.5104519199999995 0.1276379445
              CHANNELS 3 Yrotation Xrotation Zrotation
              End Site
              {
                OFFSET -0.30409491089999996 0.5104519199999995 0.1276379445
              }
            }
            JOINT jaw
            {
              OFFSET -3.155239131000001e-7 -0.11984121820000082 0.60178107
              CHANNELS 3 Yrotation Xrotation Zrotation
              End Site
              {
                OFFSET -3.155239131000001e-7 -0.11984121820000082 0.60178107
              }
            }
          }
        }
        JOINT rightShoulder
        {
          OFFSET -0.1807303465 1.5087829790000005 0
          CHANNELS 3 Yrotation Xrotation Zrotation
          JOINT rightUpperArm
          {
            OFFSET -0.5985063796536958 0 0
            CHANNELS 3 Yrotation Xrotation Zrotation
            JOINT rightLowerArm
            {
              OFFSET -2.2993322059002854 0 0
              CHANNELS 3 Yrotation Xrotation Zrotation
              JOINT rightHand
              {
                OFFSET -2.395045314457259 0 0
                CHANNELS 3 Yrotation Xrotation Zrotation
                JOINT rightIndexProximal
                {
                  OFFSET -0.5764487688300002 0.0441371204405987 0.17361932004999997
                  CHANNELS 3 Yrotation Xrotation Zrotation
                  JOINT rightIndexIntermediate
                  {
                    OFFSET -0.29573011380000047 -0.01934826376999843 -0.007698921482999974
                    CHANNELS 3 Yrotation Xrotation Zrotation
                    JOINT rightIndexDistal
                    {
                      OFFSET -0.19008373999999884 -0.012503266380000655 -0.0026365778999999897
                      CHANNELS 3 Yrotation Xrotation Zrotation
                      End Site
                      {
                        OFFSET -0.19008373999999884 -0.012503266380000655 -0.0026365778999999897
                      }
                    }
                  }
                }
                JOINT rightMiddleProximal
                {
                  OFFSET -0.5834852037300005 0.05211639405060153 0.02307162440000001
                  CHANNELS 3 Yrotation Xrotation Zrotation
                  JOINT rightMiddleIntermediate
                  {
                    OFFSET -0.33880114510000003 -0.019952774050000954 0.0002455003561999819
                    CHANNELS 3 Yrotation Xrotation Zrotation
                    JOINT rightMiddleDistal
                    {
                      OFFSET -0.20675694929999955 -0.012273788999999091 0.00030209124000002766
                      CHANNELS 3 Yrotation Xrotation Zrotation
                      End Site
                      {
                        OFFSET -0.20675694929999955 -0.012273788999999091 0.00030209124000002766
                      }
                    }
                  }
                }
                JOINT rightLittleProximal
                {
                  OFFSET -0.5346811737299992 -0.011214256288399227 -0.24363941305000003
                  CHANNELS 3 Yrotation Xrotation Zrotation
                  JOINT rightLittleIntermediate
                  {
                    OFFSET -0.21757715980000092 -0.011771559690000988 0.01201554387
                    CHANNELS 3 Yrotation Xrotation Zrotation
                    JOINT rightLittleDistal
                    {
                      OFFSET -0.1475201849000004 -0.00822055339600003 0.006082065407000015
                      CHANNELS 3 Yrotation Xrotation Zrotation
                      End Site
                      {
                        OFFSET -0.1475201849000004 -0.00822055339600003 0.006082065407000015
                      }
                    }
                  }
                }
                JOINT rightRingProximal
                {
                  OFFSET -0.5800810755299999 0.027657985680600072 -0.12066365025000003
                  CHANNELS 3 Yrotation Xrotation Zrotation
                  JOINT rightRingIntermediate
                  {
                    OFFSET -0.26166445029999974 -0.013623118409999302 0.011164098990000045
                    CHANNELS 3 Yrotation Xrotation Zrotation
                    JOINT rightRingDistal
                    {
                      OFFSET -0.17666387530000027 -0.009072900100000503 0.005668185599999959
                      CHANNELS 3 Yrotation Xrotation Zrotation
                      End Site
                      {
                        OFFSET -0.17666387530000027 -0.009072900100000503 0.005668185599999959
                      }
                    }
                  }
                }
                JOINT rightThumbProximal
                {
                  OFFSET -0.10997596379000074 -0.09577489355940072 0.16989765924999997
                  CHANNELS 3 Yrotation Xrotation Zrotation
                  JOINT rightThumbIntermediate
                  {
                    OFFSET -0.31036620999999986 -0.08229339117999834 0.15440884469999996
                    CHANNELS 3 Yrotation Xrotation Zrotation
                    JOINT rightThumbDistal
                    {
                      OFFSET -0.21631306399999906 -0.08825326400000111 0.018656797720000014
                      CHANNELS 3 Yrotation Xrotation Zrotation
                      End Site
                      {
                        OFFSET -0.21631306399999906 -0.08825326400000111 0.018656797720000014
                      }
                    }
                  }
                }
              }
            }
          }
        }
      }
    }
  }
}
MOTION
Frames: 8
Frame Time: 0.03333333333333333
0 11.682712981546562 0 0 0 0 0 0 -5.826343164929014 -0.3712483961610101 -3.6333298826370974 5.838118207697276 0 0 0 0 0 0 0 0 5.826343164929014 0.3712483961610101 -3.6333298826370974 -5.838118207697276 0 0 0 0 0 0 0 -4.610651315171937 0 0 3.0831277533083026 0 0 0 0 0 1.5275236235667615 0 0 0 0 0 0 0 0 0 0 0 0 0 0 0 0 0 0 0 0 0 0 0 0 0 0 0 0 0 0 0 0 0 0 0 0 0 0 0 0 0 0 0 0 0 0 0 0 0 0 0 0 0 0 0 0 1.5275236235667615 0 0 0 0 0 0 0 0 0 0 0 0 0 0 1.5275236235667615 0 0 0 0 0 0 0 0 0 0 0 0 0 0 0 0 0 0 0 0 0 0 0 0 0 0 0 0 0 0 0 0 0 0 0 0 0 0 0 0 0 0 0 0 0 0 0 0 0 0 0 0 0 0 0
0 4.326469546519941 0 0 -25.338977163313462 0 -6.954387716108428 0.5202115366765651 11.539440004151016 -0.5282261787257956 -5.626188679600391 4.183063021229125 11.143695643712897 3.360417972544251 4.174664424987905 0 0 0 6.37864817694409 -44.278826382929246 -11.257618048830134 -3.8040784551515623 29.865153861552425 -6.246500631591788 9.586274973482416 17.27450913581123 -4.722491767774087 0 0 0 0 -2.431352346739936 0 -0.20820492873146085 13.168247512865623 -0.12997470386468674 0 0 0 2.5060458335979376 0.7635315062962862 -1.4910946816157629 6.383530786260974 8.349904138678234 -23.2782923126406 -23.32533643715185 10.580768872662668 5.788533834491185 -1.4051536352582437 7.172584328910204 -0.8415228775187376 0 0 0 0 0 0 0 0 0 0 0 0 0 0 0 0 0 0 0 0 0 0 0 0 0 0 0 0 0 0 0 0 0 0 0 0 0 0 0 0 0 0 0 0 0 0 7.526973074611866 0 0 2.9995222397170505 0 0 0 0 0 0 0 0 0 0 -2.3241719340589753 0.8876352906069639 1.623940882335743 -6.360029671561307 8.324050158452623 23.207302570788546 23.24563768775788 10.553479645483065 -5.842694609738186 1.3835758151431594 7.012969459314736 0.6888617653171757 0 0 0 0 0 0 0 0 0 0 0 0 0 0 0 0 0 0 0 0 0 0 0 0 0 0 0 0 0 0 0 0 0 0 0 0 0 0 0 0 0 0 0 0 0
0 -3.0297738885066803 0 0 -50.67795064023394 0 -13.443205743627146 3.0847368856615525 28.73246486606831 -0.6277147993317055 -7.622735581106436 2.5268139180746885 22.547320892801746 5.840077129054192 8.939244686052394 0 0 0 84.36641014922945 -73.29628195744903 -96.89086640980986 -12.344270251602714 63.150656868741926 -12.136664892115919 19.012666108416788 35.07796205627645 -6.687864629285865 0 0 0 0 -0.25205336293157105 0 -0.4536303335038448 23.252782371888713 -0.30740207046605034 0 0 0 5.030882701319283 0.06570700784721262 -3.014025033364878 9.022763944382062 18.528919076435425 -46.40710423420198 -46.86070600671602 22.576360247949868 6.926271298946741 -2.952351035109427 14.321209175719709 -1.8840606254324241 0 0 0 0 0 0 0 0 0 0 0 0 0 0 0 0 0 0 0 0 0 0 0 0 0 0 0 0 0 0 0 0 0 0 0 0 0 0 0 0 0 0 0 0 0 0 13.526422225191142 0 0 5.999044580432645 0 0 0 0 0 0 0 0 0 0 -4.665279318628251 0.31436207431007435 3.27231029704335 -9.000183109945448 18.466954126998118 46.26373693319463 46.681919469639666 22.5436544451662 -7.062779005269558 2.8854927300841298 14.006447556967967 1.5674181968036895 0 0 0 0 0 0 0 0 0 0 0 0 0 0 0 0 0 0 0 0 0 0 0 0 0 0 0 0 0 0 0 0 0 0 0 0 0 0 0 0 0 0 0 0 0
0 -10.386017323533302 0 0 -76.0169359748183 0 -18.91537426037495 7.43845130131414 45.62730268474517 -0.6691713515176313 -9.621306874259808 0.8653018278118253 34.162911631498005 7.321788245912616 14.121843705578842 0 0 0 141.6627832322172 -37.95338053674168 -162.02732602103725 -143.44148930367604 80.58374087016622 -140.93273985174878 30.81388361767842 52.903664018079226 -4.558364503566682 0 0 0 0 1.9272455734327285 0 -0.7607161931045981 33.33639569857748 -0.5539595431223295 0 0 0 7.57349268389948 -0.5641092611718282 -4.566289942971818 7.10368514482649 28.878163401711216 -70.92654260543935 -72.90028288690023 33.93114773943319 2.3501991560193436 -4.702121934192315 21.437505790539717 -3.17579100448041 0 0 0 0 0 0 0 0 0 0 0 0 0 0 0 0 0 0 0 0 0 0 0 0 0 0 0 0 0 0 0 0 0 0 0 0 0 0 0 0 0 0 0 0 0 0 19.52587217553456 0 0 8.99856659418915 0 0 0 0 0 0 0 0 0 0 -7.021877825381264 -0.1908728041903377 4.942699984110864 -7.115425403770143 28.786138973242817 70.69281769212351 72.59179648522475 33.93428420069304 -2.597292051370686 4.5606242197346925 20.973366211686354 2.6759002608054225 0 0 0 0 0 0 0 0 0 0 0 0 0 0 0 0 0 0 0 0 0 0 0 0 0 0 0 0 0 0 0 0 0 0 0 0 0 0 0 0 0 0 0 0 0
0 -10.386017323533302 0.01387775917242331 0 -76.30185388603468 0 -18.933880418283263 7.678256361486754 45.51940822447406 -0.7338921218818905 -9.549225586243894 0.8700315095892007 33.991437182091516 7.045175519143925 13.95920388655507 0 0 0 141.55441892578062 -38.12365908053866 -161.71733749933605 -143.94884858968922 80.48264358839414 -141.44484572247237 31.420307510224514 52.81178733347722 -4.1863863776200025 0 0 0 0 2.212600573307112 0 -0.7564327324765052 32.83871253436882 -0.5460867439079913 0 0 0 7.644783656555537 -0.32670620691966074 -4.0590975826300655 7.113405432044012 29.068724545834485 -71.25298347715082 -73.30347361293919 33.94771631210665 2.146512028237036 -4.624068776996774 21.533217219788675 -3.5219344849591185 0 0 0 0 0 0 0 0 0 0 0 0 0 0 0 0 0 0 0 0 0 0 0 0 0 0 0 0 0 0 0 0 0 0 0 0 0 0 0 0 0 0 0 0 0 0 19.216849780576847 0 0 8.831986581617736 0 0 0 0 0 0 0 0 0 0 -7.104175274468567 0.042452574428023235 4.426062268321916 -7.129200975215887 28.97991161392729 71.01369984646824 73.016104144681 33.95257841089826 -2.38945214520195 4.479301702858518 21.073561655037295 3.0386279358395774 0 0 0 0 0 0 0 0 0 0 0 0 0 0 0 0 0 0 0 0 0 0 0 0 0 0 0 0 0 0 0 0 0 0 0 0 0 0 0 0 0 0 0 0 0
0 -10.386017323533302 0.02775551834484662 0 -76.58678756279392 0 -18.95285293356893 7.918026139313392 45.41137114699099 -0.7985931140089503 -9.477138776017082 0.8746775796247864 33.82085022128381 6.768082480779728 13.7974931926048 0 0 0 141.44462746767545 -38.29346977889912 -161.40621335666955 -144.44548181981628 80.38080061553974 -141.9462248197326 32.024441598905284 52.71755040318194 -3.8168283530224296 0 0 0 0 2.497955586332336 0 -0.7522540011903283 32.341031120710106 -0.5383015410012832 0 0 0 7.718172343966989 -0.08994365650122843 -3.551617373393846 7.121899202119379 29.25933136474543 -71.57999487730925 -73.70680770311452 33.963094009919395 1.9426509850122506 -4.546587140279412 21.629362828448745 -3.868166655439747 0 0 0 0 0 0 0 0 0 0 0 0 0 0 0 0 0 0 0 0 0 0 0 0 0 0 0 0 0 0 0 0 0 0 0 0 0 0 0 0 0 0 0 0 0 0 18.907829677525186 0 0 8.665405787697075 0 0 0 0 0 0 0 0 0 0 -7.188574284196106 0.275026146959203 3.9090840881676803 -7.1417596912582875 29.173750639236104 71.33513361780484 73.44057693315536 33.96960000397172 -2.1814113615783315 4.398605814707827 21.17423667550564 3.401448208886352 0 0 0 0 0 0 0 0 0 0 0 0 0 0 0 0 0 0 0 0 0 0 0 0 0 0 0 0 0 0 0 0 0 0 0 0 0 0 0 0 0 0 0 0 0
0 -10.386017323533302 0.04163327751726993 0 -76.8717152121979 0 -18.972290851887827 8.157760464184252 45.30319250260728 -0.863274710735755 -9.405047198404121 0.8792401652054999 33.65114768094289 6.490513810252538 13.636704530750615 0 0 0 141.33340238921917 -38.462815204259456 -161.09394417142153 -144.931647756467 80.27827530308325 -142.43713963744977 32.62624438718899 52.62095699511449 -3.449733547119443 0 0 0 0 2.7833106409274193 0 -0.7481776480624527 31.84334634737062 -0.5306014067406072 0 0 0 7.793654992295671 0.1461594032493699 -3.043833568574102 7.129158926153662 29.449976424270787 -71.90758524964833 -74.11027541045401 33.97728430639538 1.7386289649248328 -4.469680914533708 21.725943752967662 -4.214489661054637 0 0 0 0 0 0 0 0 0 0 0 0 0 0 0 0 0 0 0 0 0 0 0 0 0 0 0 0 0 0 0 0 0 0 0 0 0 0 0 0 0 0 0 0 0 0 18.598808294239376 0 0 8.498825396080004 0 0 0 0 0 0 0 0 0 0 -7.275071649414931 0.5068284707501476 3.391749580669559 -7.153094147973727 29.367646893747263 71.65712779197524 73.86520345667155 33.98533998001537 -1.9731841018114322 4.318540710904905 21.275385232208194 3.764364123610587 0 0 0 0 0 0 0 0 0 0 0 0 0 0 0 0 0 0 0 0 0 0 0 0 0 0 0 0 0 0 0 0 0 0 0 0 0 0 0 0 0 0 0 0 0
0 -10.386017323533302 0.055510947225602805 0 -77.15684344403502 0 -18.99221316500671 8.397595517107655 45.194807447119636 -0.9279415351744936 -9.33294555093797 0.883719287075943 33.48214659902822 6.212186832899597 13.476663716735528 0 0 0 141.2206482487469 -38.63181159946946 -160.7802737440002 -145.40765968478146 80.17502844804415 -142.91789810495786 33.226439930905116 52.521910156176084 -3.08467955333936 0 0 0 0 3.0688572839388115 0 -0.7441930186272533 31.34464133603951 -0.5229682919688545 0 0 0 7.871437629628952 0.38220909490607485 -2.5343783093421686 7.135185240267385 29.64088602454537 -72.23616531612937 -74.51424862225188 33.990294845617186 1.534267165905191 -4.393254340774604 21.8230770238121 -4.561349886241462 0 0 0 0 0 0 0 0 0 0 0 0 0 0 0 0 0 0 0 0 0 0 0 0 0 0 0 0 0 0 0 0 0 0 0 0 0 0 0 0 0 0 0 0 0 0 18.289541082701536 0 0 8.332206032273445 0 0 0 0 0 0 0 0 0 0 -7.363907532246117 0.7384701896466426 2.872627789730242 -7.163210511907764 29.561828686719224 71.98007462630133 74.29040933905858 33.99981410556202 -1.7645710177930563 4.238998350789131 21.37714797714861 4.127887944878877 0 0 0 0 0 0 0 0 0 0 0 0 0 0 0 0 0 0 0 0 0 0 0 0 0 0 0 0 0 0 0 0 0 0 0 0 0 0 0 0 0 0 0 0 0
